<?xml version="1.0" encoding="utf-8"?>
<!-- Generator: Adobe Illustrator 24.3.0, SVG Export Plug-In . SVG Version: 6.00 Build 0)  -->
<svg version="1.1" id="Layer_1" xmlns="http://www.w3.org/2000/svg" xmlns:xlink="http://www.w3.org/1999/xlink" x="0px" y="0px"
	 viewBox="0 0 300 300" style="enable-background:new 0 0 300 300;" xml:space="preserve">
<style type="text/css">
	.st0{fill-rule:evenodd;clip-rule:evenodd;fill:#140092;}
	.st1{fill-rule:evenodd;clip-rule:evenodd;fill:#1000C6;}
	.st2{fill-rule:evenodd;clip-rule:evenodd;fill:#040036;}
</style>
<path class="st0" d="M236.4,82.8c19.4,43,21.1,77.6,12.4,115.9c-8.7,38.4-33,62.5-56,75.6c-47.3,27.1-89.4,10.1-118.5-24.2
	c-45.9-54.1-30.7-149.6,10.2-201C138.9-19,206.1,15.7,236.4,82.8L236.4,82.8z"/>
<path class="st1" d="M185.5,84.2c4.6,26.9,0.6,46.5-9.8,66.7c-10.4,20.2-27.5,30.2-42.3,34.3c-30.4,8.3-51.5-7.3-62.8-30.7
	c-17.9-37,4.4-88.2,34.8-111.1C145.7,13.1,178.3,42.2,185.5,84.2L185.5,84.2z"/>
<path class="st2" d="M236.4,82.8c19.4,43,21.1,77.6,12.4,115.9c-8.7,38.4-33,62.5-56,75.6c-47.3,27.1-89.4,10.1-118.5-24.2
	c-2-2.3-3.8-4.7-5.6-7.2c51.5,34.8,89.1,26.3,121.4-0.9c64.2-54.2,55.2-141.9,20.6-199.1C220.8,54.1,229.5,67.6,236.4,82.8
	L236.4,82.8z"/>
</svg>
